<?xml version="1.0" encoding="utf-8"?>
<!-- Generator: Adobe Illustrator 19.1.0, SVG Export Plug-In . SVG Version: 6.00 Build 0)  -->
<svg version="1.1" id="Layer_1" xmlns="http://www.w3.org/2000/svg" xmlns:xlink="http://www.w3.org/1999/xlink" x="0px" y="0px"
	 viewBox="-306 564.1 227.2 64.4" style="enable-background:new -306 564.1 227.2 64.4;" xml:space="preserve">
<style type="text/css">
	.st0{fill:#3EB1C0;}
</style>
<path class="st0" d="M-188.7,589.1h-15.9v20.3c0,5,1.7,6.5,4.4,6.5c2.5,0,4.1-1.1,5.2-2.3v10.2c0,0-0.6,1.3-6.3,1.3
	c-8.2,0-13.9-4.2-13.9-15.8v-20.2h-5.8v-8.9h5.9v-13h10.5v13h15.9"/>
<path class="st0" d="M-265.2,602.1c0-13,10.4-22.8,23.7-22.8c13.2,0,23.5,9.8,23.5,22.8s-10.2,22.8-23.5,22.8
	S-265.2,615.1-265.2,602.1 M-228.9,602.1c0-8-4.9-13.7-12.7-13.7c-7.8,0-12.8,5.6-12.8,13.7c0,8,5,13.8,12.8,13.8
	C-233.8,615.8-228.9,610.1-228.9,602.1"/>
<path class="st0" d="M-187.6,580.2h10.6l-0.1,8.2c2.9-6.9,7.9-9.1,12.7-9.1c3.1,0,7.7,1.1,10.3,3.5c0,0-2.7,2.5-3.6,3.4
	c-1.4,1.4-3.2,4.4-3.2,4.4c-1.7-0.8-3.2-1.4-5.6-1.4c-6.3,0-10.5,3.6-10.5,13.4v21.9h-10.5v-35.8"/>
<path class="st0" d="M-162.4,602.1c0-13,10.4-22.8,23.7-22.8s23.5,9.8,23.5,22.8s-10.2,22.8-23.5,22.8S-162.4,615.1-162.4,602.1
	 M-126.1,602.1c0-8-4.9-13.7-12.7-13.7s-12.8,5.6-12.8,13.7c0,8,5,13.8,12.8,13.8C-131,615.8-126.1,610.1-126.1,602.1"/>
<path class="st0" d="M-118.6,615.8l7.2-5c2.7,3.9,6.8,5.6,11.8,5.6c5.3,0,7.7-1.8,7.7-4.7c0-3.5-3.2-4.1-10.6-6.1
	c-6.5-1.8-12.9-4.8-12.9-13.4c0-8.8,7-12.9,15.6-12.9c7,0,11.9,2.9,15.2,6.6l-6.2,6c-2.1-2.4-5.1-4.3-9.1-4.3s-6.1,1.5-6.1,4.1
	c0,3.3,2.7,4.1,9.6,5.8c6.9,1.8,14.4,4.5,14.4,13.8c0,7.5-4.6,13.7-17,13.7C-109,624.9-115.7,620.5-118.6,615.8"/>
<path class="st0" d="M-266.6,602.4c0-2.7,0.7-5.5,0.7-5.5H-279v-17.7h-10.6v17.7H-304v11h14.4v17h10.6v-17h13.1
	C-265.9,607.9-266.6,605.2-266.6,602.4"/>
</svg>
