<?xml version="1.0" encoding="utf-8"?>
<!-- Generator: Adobe Illustrator 19.1.0, SVG Export Plug-In . SVG Version: 6.00 Build 0)  -->
<svg version="1.1" id="Layer_1" xmlns="http://www.w3.org/2000/svg" xmlns:xlink="http://www.w3.org/1999/xlink" x="0px" y="0px"
	 viewBox="0 0 227.2 64.4" style="enable-background:new 0 0 227.2 64.4;" xml:space="preserve">
<style type="text/css">
	.st0{fill:#FFFFFF;}
</style>
<path class="st0" d="M117.3,25l-15.9,0v20.3c0,5,1.7,6.5,4.4,6.5c2.5,0,4.1-1.1,5.2-2.3l0,10.2c0,0-0.6,1.3-6.3,1.3
	c-8.2,0-13.9-4.2-13.9-15.8V25H85v-8.9h5.9v-13h10.5v13h15.9"/>
<path class="st0" d="M40.8,38c0-13,10.4-22.8,23.7-22.8C77.7,15.2,88,25,88,38c0,13-10.2,22.8-23.5,22.8C51.2,60.8,40.8,51,40.8,38
	 M77.1,38c0-8-4.9-13.7-12.7-13.7c-7.8,0-12.8,5.6-12.8,13.7c0,8,5,13.8,12.8,13.8C72.2,51.7,77.1,46,77.1,38"/>
<path class="st0" d="M118.4,16.1H129l-0.1,8.2c2.9-6.9,7.9-9.1,12.7-9.1c3.1,0,7.7,1.1,10.3,3.5c0,0-2.7,2.5-3.6,3.4
	c-1.4,1.4-3.2,4.4-3.2,4.4c-1.7-0.8-3.2-1.4-5.6-1.4c-6.3,0-10.5,3.6-10.5,13.4v21.9h-10.5V24.6"/>
<path class="st0" d="M143.6,38c0-13,10.4-22.8,23.7-22.8c13.3,0,23.5,9.8,23.5,22.8c0,13-10.2,22.8-23.5,22.8
	C154,60.8,143.6,51,143.6,38 M179.9,38c0-8-4.9-13.7-12.7-13.7c-7.8,0-12.8,5.6-12.8,13.7c0,8,5,13.8,12.8,13.8
	C175,51.7,179.9,46,179.9,38"/>
<path class="st0" d="M187.4,51.7l7.2-5c2.7,3.9,6.8,5.6,11.8,5.6c5.3,0,7.7-1.8,7.7-4.7c0-3.5-3.2-4.1-10.6-6.1
	c-6.5-1.8-12.9-4.8-12.9-13.4c0-8.8,7-12.9,15.6-12.9c7,0,11.9,2.9,15.2,6.6l-6.2,6c-2.1-2.4-5.1-4.3-9.1-4.3c-4,0-6.1,1.5-6.1,4.1
	c0,3.3,2.7,4.1,9.6,5.8c6.9,1.8,14.4,4.5,14.4,13.8c0,7.5-4.6,13.7-17,13.7C197,60.8,190.3,56.4,187.4,51.7"/>
<path class="st0" d="M39.4,38.3c0-2.7,0.7-5.5,0.7-5.5H27V15.1H16.4v17.7H2v11h14.4v17H27v-17h13.1C40.1,43.8,39.4,41.1,39.4,38.3"
	/>
</svg>
